# AST/ASF file generated using VICON BodyLanguage
# -----------------------------------------------
:version 1.10
:name VICON
:units
  mass 1.0
  length 0.45
  angle deg
:documentation
   .ast/.asf automatically generated from VICON data using
   VICON BodyBuilder and BodyLanguage model FoxedUp or BRILLIANT.MOD
:root
   order TX TY TZ RX RY RZ
   axis XYZ
   position 0 0 0  
   orientation 0 0 0 
:bonedata
  begin
     id 1 
     name lhipjoint
     direction 0.711131 -0.61297 0.344326 
     length 2.29162 
     axis 0 0 0  XYZ
  end
  begin
     id 2 
     name lfemur
     direction 0.34202 -0.939693 0  
     length 6.71424  
     axis 0 0 20  XYZ
    dof rx ry rz
    limits (-160.0 20.0)
           (-70.0 70.0)
           (-60.0 70.0)
  end
  begin
     id 3 
     name ltibia
     direction 0.34202 -0.939693 0   
     length 6.7087   
     axis 0 0 20   XYZ
    dof rx
    limits (-10.0 170.0)
  end
  begin
     id 4 
     name lfoot
     direction 0.0230374 -0.0632947 0.997729   
     length 1.56743   
     axis -90 7.62852e-016 20   XYZ
    dof rx rz
    limits (-45.0 90.0)
           (-70.0 20.0)
  end
  begin
     id 5 
     name ltoes
     direction 1.53585e-011 -4.21885e-011 1   
     length 0.802914   
     axis -90 7.62852e-016 20   XYZ
    dof rx
    limits (-90.0 20.0)
  end
  begin
     id 6 
     name rhipjoint
     direction -0.733192 -0.592884 0.333043   
     length 2.36925  
     axis 0 0 0  XYZ 
  end
  begin
     id 7 
     name rfemur
     direction -0.34202 -0.939693 0   
     length 6.67027   
     axis 0 0 -20   XYZ
    dof rx ry rz
    limits (-160.0 20.0)
           (-70.0 70.0)
           (-70.0 60.0)
  end
  begin
     id 8 
     name rtibia
     direction -0.34202 -0.939693 0   
     length 6.6862   
     axis 0 0 -20   XYZ
    dof rx
    limits (-10.0 170.0)
 end
 begin
     id 9 
     name rfoot
     direction -0.0949739 -0.260939 0.960672   
     length 1.67698  
     axis -90 -7.62852e-016 -20   XYZ
    dof rx rz
    limits (-45.0 90.0)
           (-20.0 70.0)
  end
  begin
     id 10 
     name rtoes
     direction -1.5353e-011 -4.21868e-011 1   
     length 0.846298   
     axis -90 -7.62852e-016 -20   XYZ
    dof rx
    limits (-90.0 20.0)
  end
  begin
     id 11 
     name lowerback
     direction -0.0206828 0.999785 -0.00109866   
     length 2.04382   
     axis 0 0 0   XYZ
    dof rx ry rz
    limits (-20.0 45.0)
           (-30.0 30.0)
           (-30.0 30.0)
  end
  begin
     id 12 
     name upperback
     direction -0.0105003 0.999727 -0.0208904   
     length 2.04538   
     axis 0 0 0   XYZ
    dof rx ry rz
    limits (-20.0 45.0)
           (-30.0 30.0)
           (-30.0 30.0)
  end
  begin
     id 13 
     name thorax
     direction -0.000416255 0.999808 -0.0196023   
     length 2.0399   
     axis 0 0 0   XYZ
    dof rx ry rz
    limits (-20.0 45.0)
           (-30.0 30.0)
           (-30.0 30.0)
  end
  begin
     id 14 
     name lowerneck
     direction 0.0627861 0.989205 0.13241   
     length 1.46207   
     axis 0 0 0   XYZ
    dof rx ry rz
    limits (-20.0 45.0)
           (-30.0 30.0)
           (-30.0 30.0)
  end
  begin
     id 15 
     name upperneck
     direction 0.00627179 0.994526 0.104303   
     length 1.41419   
     axis 0 0 0   XYZ
    dof rx ry rz
    limits (-20.0 45.0)
           (-30.0 30.0)
           (-30.0 30.0)
  end
  begin
     id 16
     name head
     direction -0.00443838 0.999688 0.0245968  
     length 1.50718  
     axis 0 0 0   XYZ
    dof rx ry rz
    limits (-20.0 45.0)
           (-30.0 30.0)
           (-30.0 30.0)
  end
  begin
     id 17 
     name lclavicle
     direction 0.758742 0.650995 -0.0227258  
     length 2.86888  
     axis 0 0 0   XYZ
    dof ry rz
    limits (-20.0 10.0)
           (0.0 20.0)
  end
  begin
     id 18 
     name lhumerus
     direction 1 -4.48962e-011 1.06664e-027   
     length 4.65776   
     axis -180 -30 -90   XYZ
    dof rx ry rz
    limits (-60.0 90.0)
           (-90.0 90.0)
           (-90.0 90.0)
  end
  begin
     id 19
     name lradius
     direction 1 -4.48968e-011 1.40404e-026   
     length 3.55539   
     axis -180 -30 -90   XYZ
    dof rx
    limits (-10.0 170.0)
  end
  begin
     id 20
     name lwrist
     direction 1 -4.48976e-011 3.32647e-026   
     length 1.77769   
     axis -2.20186e-014 90 90   XYZ
    dof ry
    limits (-180.0 0.0)
 end
  begin
     id 21 
     name lhand
     direction 1 -4.48982e-011 6.65293e-026   
     length 0.707264   
     axis -4.24514e-014 90 90   XYZ
    dof rx rz
    limits (-90.0 90.0)
           (-45.0 45.0)
  end
  begin
     id 22 
     name lfingers
     direction 1 -4.48966e-011 1.33059e-025   
     length 0.570215   
     axis -8.49028e-014 90 90   XYZ
    dof rx
    limits (0.0 90.0)
  end
  begin
     id 23
     name lthumb
     direction 0.707107 -6.3493e-011 0.707107   
     length 0.818718   
     axis -90 45 2.85299e-015   XYZ
    dof rx rz
    limits (-45.0 45.0)
           (-45.0 45.0)
  end
  begin
     id 24 
     name rclavicle
     direction -0.870343 0.482028 -0.100759   
     length 3.2251  
     axis 0 0 0   XYZ 
    dof ry rz
    limits (-10.0 20.0)
           (-20.0 0.0)
  end
  begin
     id 25 
     name rhumerus
     direction -1 -4.48974e-011 -9.45849e-028  
     length 4.71925   
     axis -180 30 90   XYZ
    dof rx ry rz
    limits (-90.0 60.0)
           (-90.0 90.0)
           (-90.0 90.0)
  end
  begin
     id 26 
     name rradius
     direction -1 -4.48965e-011 1.17607e-026   
     length 3.5699   
     axis -180 30 90   XYZ
    dof rx
    limits (-10.0 170.0)
  end
  begin
     id 27 
     name rwrist
     direction -1 -4.48968e-011 3.32647e-026   
     length 1.78495   
     axis -2.20186e-014 -90 -90   XYZ
    dof ry
    limits (-180.0 0.0)
  end
  begin
     id 28
     name rhand
     direction -1 -4.48995e-011 6.65293e-026   
     length 0.507757   
     axis -4.24514e-014 -90 -90   XYZ
    dof rx rz
    limits (-90.0 90.0)
           (-45.0 45.0)
  end
  begin
     id 29
     name rfingers
     direction -1 -4.48864e-011 1.33059e-025   
     length 0.409367   
     axis -8.49028e-014 -90 -90   XYZ
    dof rx
    limits (0.0 90.0)
  end
  begin
     id 30
     name rthumb
     direction -0.707107 -6.3494e-011 0.707107   
     length 0.587771   
     axis -90 -45 -2.85299e-015   XYZ
    dof rx rz
    limits (-45.0 45.0)
           (-45.0 45.0)
  end
:hierarchy
  begin
    root lhipjoint rhipjoint lowerback
    lhipjoint lfemur
    lfemur ltibia
    ltibia lfoot
    lfoot ltoes
    rhipjoint rfemur
    rfemur rtibia
    rtibia rfoot
    rfoot rtoes
    lowerback upperback
    upperback thorax
    thorax lowerneck lclavicle rclavicle
    lowerneck upperneck
    upperneck head
    lclavicle lhumerus
    lhumerus lradius
    lradius lwrist
    lwrist lhand lthumb
    lhand lfingers
    rclavicle rhumerus
    rhumerus rradius
    rradius rwrist
    rwrist rhand rthumb
    rhand rfingers
  end

#!OML:ASF E:\Steps\Project 1\Capture day 1\Session 2\Subject.ASF
:FULLY-SPECIFIED
:DEGREES
17
root 8.72847 16.3263 30.4464 -152.094 0.986183 -179.761
lowerback -29.2538 -2.19045 -4.14321
upperback -3.14046 -0.573382 -0.11517
thorax 12.7503 -0.0826902 2.13057
lowerneck 1.16019 -2.73181 -3.6491
upperneck -11.3219 -2.68448 6.67489
head -3.76794 -1.22667 2.97665
rclavicle 8.44835e-016 -6.75868e-015
rhumerus -34.6516 -18.795 -80.1055
rradius 28.6939
rwrist 1.80721
rhand -7.53071 -55.5482
rfingers 7.12502
rthumb 18.3603 -84.7017
lclavicle 8.44835e-016 -6.75868e-015
lhumerus -29.4134 3.50534 83.2924
lradius 22.6901
lwrist -5.62444
lhand -21.3042 -15.1904
lfingers 7.12502
lthumb 5.08064 14.7287
rfemur -25.4165 7.86813 18.0199
rtibia 8.4406
rfoot -19.7086 -10.2063
rtoes -33.4327
lfemur -24.5301 -8.37543 -17.6395
ltibia 6.88614
lfoot -8.5552 4.64094
ltoes -35.2476
18
root 8.7296 16.3264 30.4446 -152.099 0.991838 -179.781
lowerback -29.2335 -2.19625 -4.1678
upperback -3.10475 -0.579981 -0.122231
thorax 12.7823 -0.0911644 2.1334
lowerneck 1.12419 -2.71479 -3.66399
upperneck -11.3077 -2.66162 6.67354
head -3.75723 -1.21388 2.97691
rclavicle 1.63997e-015 1.98785e-015
rhumerus -34.6349 -18.735 -80.1436
rradius 28.7208
rwrist 1.71688
rhand -7.54507 -55.4998
rfingers 7.12502
rthumb 18.3465 -84.6546
lclavicle 1.63997e-015 1.98785e-015
lhumerus -29.3065 3.6626 83.2173
lradius 22.55
lwrist -5.76998
lhand -21.3649 -14.5589
lfingers 7.12502
lthumb 5.02205 15.3616
rfemur -25.4313 7.41276 18.1186
rtibia 8.49346
rfoot -19.711 -9.85265
rtoes -34.18
lfemur -24.5265 -8.26443 -17.6881
ltibia 6.9178
lfoot -8.57664 4.48075
ltoes -34.9041
19
root 8.7325 16.3269 30.4429 -152.141 0.939796 -179.799
lowerback -29.1482 -2.21703 -4.16738
upperback -3.07947 -0.61553 -0.144972
thorax 12.7696 -0.109812 2.09232
lowerneck 1.13452 -2.71824 -3.68632
upperneck -11.2271 -2.67203 6.72797
head -3.72969 -1.22272 2.99837
rclavicle 1.98785e-015 1.15295e-014
rhumerus -34.6431 -18.6712 -80.2205
rradius 28.7468
rwrist 1.62627
rhand -7.5574 -55.4563
rfingers 7.12502
rthumb 18.3347 -84.6122
lclavicle 1.98785e-015 1.15295e-014
lhumerus -29.2761 3.65824 83.1506
lradius 22.5327
lwrist -5.80754
lhand -20.8456 -13.9971
lfingers 7.12502
lthumb 5.52343 15.911
rfemur -25.3329 7.33168 18.1121
rtibia 8.41067
rfoot -19.8172 -9.61419
rtoes -32.9066
lfemur -24.5401 -8.09678 -17.7317
ltibia 7.03338
lfoot -8.53905 4.28667
ltoes -34.7828
20
root 8.73369 16.326 30.4419 -152.107 0.921128 -179.79
lowerback -29.2237 -2.21244 -4.09929
upperback -3.02251 -0.628748 -0.178003
thorax 12.8753 -0.116984 2.00874
lowerneck 1.12453 -2.76213 -3.67777
upperneck -11.2449 -2.71946 6.80076
head -3.73064 -1.24775 3.02362
rclavicle 4.96962e-016 -3.18055e-015
rhumerus -34.5839 -18.6545 -80.3173
rradius 28.7429
rwrist 1.58365
rhand -7.57176 -55.4632
rfingers 7.12502
rthumb 18.3209 -84.6204
lclavicle 4.96962e-016 -3.18055e-015
lhumerus -29.1979 3.70447 83.0834
lradius 22.5488
lwrist -5.7981
lhand -20.502 -13.8896
lfingers 7.12502
lthumb 5.85515 16.0095
rfemur -25.344 7.44852 18.0807
rtibia 8.3687
rfoot -19.8917 -9.5898
rtoes -31.7732
lfemur -24.592 -8.10127 -17.7103
ltibia 7.07335
lfoot -8.48503 4.39796
ltoes -35.5884
21
root 8.73364 16.3268 30.4399 -152.064 0.964282 -179.817
lowerback -29.3191 -2.20267 -4.11453
upperback -2.96728 -0.607393 -0.203656
thorax 12.9888 -0.112875 1.99553
lowerneck 1.02334 -2.78347 -3.67058
upperneck -11.288 -2.73302 6.81755
head -3.72527 -1.25009 3.02678
rclavicle -1.0635e-014 0
rhumerus -34.5522 -18.6734 -80.3306
rradius 28.7318
rwrist 1.58173
rhand -7.58935 -55.4425
rfingers 7.12502
rthumb 18.3039 -84.6013
lclavicle -1.0635e-014 0
lhumerus -29.1211 3.85067 83.0359
lradius 22.5433
lwrist -5.79256
lhand -20.4089 -13.6987
lfingers 7.12502
lthumb 5.94509 16.1979
rfemur -25.3996 7.49483 18.0195
rtibia 8.38509
rfoot -19.8639 -9.58922
rtoes -31.896
lfemur -24.5609 -8.38425 -17.6805
ltibia 6.96083
lfoot -8.53164 4.70651
ltoes -35.3549
22
root 8.73394 16.3288 30.4347 -152.044 1.00504 -179.829
lowerback -29.459 -2.20799 -4.17795
upperback -2.56283 -0.585458 -0.125941
thorax 12.7182 -0.0965642 1.99941
lowerneck 0.943933 -2.76813 -3.70858
upperneck -11.2461 -2.71252 6.82758
head -3.69603 -1.23714 3.03337
rclavicle -2.5345e-015 -4.37326e-015
rhumerus -34.6197 -18.6151 -80.2778
rradius 28.7558
rwrist 1.56896
rhand -7.61497 -55.3915
rfingers 7.12502
rthumb 18.2793 -84.5527
lclavicle -2.5345e-015 -4.37326e-015
lhumerus -29.176 3.85602 83.0695
lradius 22.6027
lwrist -5.66173
lhand -20.4279 -13.6283
lfingers 7.12502
lthumb 5.92669 16.2688
rfemur -25.3956 7.62968 17.9617
rtibia 8.36676
rfoot -19.8391 -9.67083
rtoes -31.94
lfemur -24.4817 -8.61246 -17.6435
ltibia 6.82699
lfoot -8.57483 4.89944
ltoes -33.9046
23
root 8.73301 16.3281 30.4298 -151.989 1.01636 -179.764
lowerback -29.6642 -2.14975 -4.05695
upperback -2.48224 -0.539769 -0.146925
thorax 12.8972 -0.0760573 1.9269
lowerneck 0.949083 -2.80258 -3.70927
upperneck -11.3086 -2.74635 6.87091
head -3.71662 -1.25319 3.05137
rclavicle -4.96962e-015 -1.59028e-014
rhumerus -34.5538 -18.6233 -80.3478
rradius 28.7484
rwrist 1.51657
rhand -7.64523 -55.3117
rfingers 7.12502
rthumb 18.2502 -84.4756
lclavicle -4.96962e-015 -1.59028e-014
lhumerus -29.1099 3.65216 83.0883
lradius 22.674
lwrist -5.35978
lhand -20.2935 -13.492
lfingers 7.12502
lthumb 6.05647 16.4014
rfemur -25.4335 7.73348 18.0069
rtibia 8.36146
rfoot -19.8999 -9.75515
rtoes -31.6455
lfemur -24.5463 -8.52913 -17.5823
ltibia 6.87084
lfoot -8.55704 4.84071
ltoes -33.7182
24
root 8.73097 16.3244 30.4264 -151.882 1.03605 -179.699
lowerback -29.9159 -2.09542 -3.94708
upperback -2.40108 -0.494869 -0.147518
thorax 13.0982 -0.0563731 1.88216
lowerneck 0.853762 -2.7686 -3.71877
upperneck -11.2865 -2.70068 6.83409
head -3.69338 -1.22615 3.03577
rclavicle 1.59028e-015 -7.95139e-015
rhumerus -34.4844 -18.6856 -80.3582
rradius 28.7437
rwrist 1.52688
rhand -7.66472 -55.2078
rfingers 7.12502
rthumb 18.2314 -84.3734
lclavicle 1.59028e-015 -7.95139e-015
lhumerus -29.0588 3.37412 83.1883
lradius 22.7957
lwrist -4.98484
lhand -20.1168 -13.2762
lfingers 7.12502
lthumb 6.22702 16.6123
rfemur -25.5729 7.40962 18.17
rtibia 8.45436
rfoot -19.9435 -9.55329
rtoes -32.2082
lfemur -24.6375 -8.59272 -17.4976
ltibia 6.83942
lfoot -8.53714 4.93306
ltoes -34.5574
25
root 8.7297 16.3222 30.424 -151.759 1.04558 -179.628
lowerback -30.0968 -2.07742 -3.88364
upperback -2.37171 -0.488306 -0.0995159
thorax 13.2118 -0.0528013 1.90115
lowerneck 0.834172 -2.72935 -3.73247
upperneck -11.37 -2.6394 6.8043
head -3.72293 -1.19091 3.02813
rclavicle 3.57812e-015 1.39149e-014
rhumerus -34.4845 -18.6879 -80.2842
rradius 28.7449
rwrist 1.59158
rhand -7.68391 -55.1678
rfingers 7.12502
rthumb 18.213 -84.3352
lclavicle 3.57812e-015 1.39149e-014
lhumerus -29.0784 3.23343 83.3127
lradius 22.8954
lwrist -4.76771
lhand -20.2021 -13.146
lfingers 7.12502
lthumb 6.14466 16.7449
rfemur -25.7343 7.11893 18.3342
rtibia 8.55341
rfoot -19.9327 -9.33299
rtoes -32.9752
lfemur -24.76 -8.48728 -17.4389
ltibia 6.81655
lfoot -8.50114 4.88397
ltoes -34.7797
26
root 8.73048 16.3226 30.4226 -151.706 1.01515 -179.578
lowerback -30.0447 -2.09347 -3.85988
upperback -2.4379 -0.520122 -0.0448906
thorax 13.1158 -0.0607882 1.9357
lowerneck 0.988443 -2.75782 -3.72531
upperneck -11.5497 -2.65908 6.86149
head -3.81481 -1.20251 3.05668
rclavicle 3.47873e-016 -4.37326e-015
rhumerus -34.5879 -18.6788 -80.1877
rradius 28.6866
rwrist 1.71541
rhand -7.70478 -55.2565
rfingers 7.12502
rthumb 18.1929 -84.4257
lclavicle 3.47873e-016 -4.37326e-015
lhumerus -29.2323 3.10697 83.386
lradius 22.9828
lwrist -4.51088
lhand -20.2755 -13.1969
lfingers 7.12502
lthumb 6.07384 16.6961
rfemur -25.7776 7.12541 18.4033
rtibia 8.53147
rfoot -19.8975 -9.3463
rtoes -33.2556
lfemur -24.8334 -8.61869 -17.3357
ltibia 6.88436
lfoot -8.48107 5.09832
ltoes -34.9164
27
root 8.73122 16.323 30.4201 -151.696 0.990903 -179.568
lowerback -29.7854 -2.11873 -3.85682
upperback -2.6298 -0.551342 -0.0147535
thorax 12.785 -0.0570347 1.95735
lowerneck 1.19799 -2.73273 -3.74013
upperneck -11.5004 -2.6439 6.89349
head -3.8389 -1.20482 3.07487
rclavicle -1.04362e-015 -1.55052e-014
rhumerus -34.9355 -18.6349 -80.079
rradius 28.7278
rwrist 1.81242
rhand -7.72538 -55.3413
rfingers 7.12502
rthumb 18.1731 -84.5123
lclavicle -1.04362e-015 -1.55052e-014
lhumerus -29.6284 2.94165 83.4275
lradius 23.158
lwrist -4.1958
lhand -20.1889 -13.2898
lfingers 7.12502
lthumb 6.15741 16.6007
rfemur -25.7748 6.92949 18.5098
rtibia 8.52754
rfoot -19.7993 -9.37769
rtoes -34.5959
lfemur -24.8427 -8.56436 -17.3384
ltibia 6.92746
lfoot -8.43925 5.08944
ltoes -35.1678
28
root 8.73107 16.3249 30.4174 -151.696 0.998109 -179.598
lowerback -29.6469 -2.12787 -3.89719
upperback -2.69539 -0.553217 -0.00789522
thorax 12.6498 -0.0543665 1.98698
lowerneck 1.18842 -2.69349 -3.73446
upperneck -11.3925 -2.60446 6.88175
head -3.80153 -1.18817 3.06531
rclavicle -3.03147e-015 -1.47101e-014
rhumerus -35.053 -18.6471 -80.0379
rradius 28.7297
rwrist 1.81699
rhand -7.7469 -55.3317
rfingers 7.12502
rthumb 18.1524 -84.5046
lclavicle -3.03147e-015 -1.47101e-014
lhumerus -29.8214 2.87356 83.4651
lradius 23.3239
lwrist -4.04885
lhand -19.9936 -13.0911
lfingers 7.12502
lthumb 6.34604 16.7938
rfemur -25.7464 6.73608 18.5327
rtibia 8.49133
rfoot -19.7906 -9.20687
rtoes -34.3015
lfemur -24.8081 -8.49405 -17.3989
ltibia 6.87171
lfoot -8.48784 4.93927
ltoes -34.806
29
root 8.73039 16.3274 30.415 -151.712 0.968685 -179.681
lowerback -29.6238 -2.15182 -4.00151
upperback -2.64524 -0.559339 -0.0116314
thorax 12.6973 -0.0680029 2.03675
lowerneck 1.09168 -2.65822 -3.73619
upperneck -11.3761 -2.55644 6.83947
head -3.78018 -1.15987 3.04633
rclavicle -3.08116e-015 -1.19271e-015
rhumerus -34.9408 -18.7536 -80.002
rradius 28.5807
rwrist 1.8613
rhand -7.76496 -55.2526
rfingers 7.12502
rthumb 18.135 -84.4272
lclavicle -3.08116e-015 -1.19271e-015
lhumerus -29.7843 2.84006 83.5278
lradius 23.4186
lwrist -3.95171
lhand -19.8729 -12.8574
lfingers 7.12502
lthumb 6.46255 17.024
rfemur -25.6495 6.75772 18.4107
rtibia 8.36709
rfoot -19.7918 -9.1508
rtoes -32.9884
lfemur -24.7778 -8.48237 -17.5088
ltibia 6.85138
lfoot -8.5412 4.79512
ltoes -34.0732
30
root 8.73002 16.3282 30.4127 -151.709 0.952085 -179.727
lowerback -29.5641 -2.16068 -4.03753
upperback -2.65689 -0.558759 -0.0348725
thorax 12.6575 -0.0680531 2.03189
lowerneck 1.18141 -2.65722 -3.72433
upperneck -11.4592 -2.54739 6.86056
head -3.82759 -1.15694 3.05607
rclavicle 3.97569e-015 3.18055e-015
rhumerus -34.99 -18.9607 -79.9093
rradius 28.4549
rwrist 2.03297
rhand -7.7753 -55.0765
rfingers 7.12502
rthumb 18.125 -84.252
lclavicle 3.97569e-015 3.18055e-015
lhumerus -29.8006 2.85423 83.5299
lradius 23.474
lwrist -3.88224
lhand -20.0609 -12.8736
lfingers 7.12502
lthumb 6.28102 17.0132
rfemur -25.6129 6.96412 18.3121
rtibia 8.32593
rfoot -19.7024 -9.47482
rtoes -33.9873
lfemur -24.7689 -8.47008 -17.5765
ltibia 6.87043
lfoot -8.54711 4.74134
ltoes -33.8141
